<svg width="1000" height="1000" viewBox="0 0 390 686" fill="none" xmlns="http://www.w3.org/2000/svg">
<g opacity="0.25">
<g opacity="0.6279">
<path d="M502.383 355.867C466.732 415.034 445.372 452.601 393.72 393.819C342.067 335.035 296.87 239.574 249.881 259.898C202.888 280.221 163.614 432.87 114.557 420.892C65.5022 408.915 48.0191 247.137 0.841392 238.475C-46.3348 229.816 -72.6726 370.902 -113.851 365.117C-155.028 359.33 -200.554 189.338 -277.726 181.814" stroke="#FFB301" stroke-width="0.843" stroke-miterlimit="10"/>
<path d="M505.85 358.18C470.784 415.965 448.985 451.192 398.489 394.43C369.232 361.78 342.034 317.437 315.751 289.398C295.982 268.253 276.367 256.317 256.344 264.944C209.923 284.948 170.385 431.579 121.724 420.736C73.3912 409.807 54.2003 253.907 6.61731 243.968C-40.1551 234.198 -67.2566 367.109 -108.176 361.432C-151.562 355.507 -202.352 191.628 -278.894 181.102" stroke="#FFB301" stroke-width="0.8009" stroke-miterlimit="10"/>
<path d="M509.318 360.492C474.839 416.896 452.793 449.606 403.261 395.042C374.283 363.121 347.103 319.928 321.297 292.954C301.972 272.653 282.635 261.479 262.811 269.988C216.961 289.672 177.129 430.433 128.895 420.576C81.2545 410.84 60.3878 260.694 12.3986 249.457C-33.9662 238.602 -61.8358 363.311 -102.496 357.746C-148.091 351.684 -204.144 193.915 -280.057 180.388" stroke="#FFB301" stroke-width="0.7587" stroke-miterlimit="10"/>
<path d="M512.786 362.803C478.892 417.828 456.489 448.115 408.031 395.653C379.271 364.516 352.171 322.42 326.842 296.513C307.963 277.056 288.901 266.643 269.275 275.033C223.997 294.399 183.892 429.208 136.065 420.42C89.137 411.797 66.5787 267.504 18.1781 254.951C-27.7797 243.032 -56.4022 359.411 -96.8187 354.062C-144.604 347.737 -205.939 196.206 -281.221 179.677" stroke="#FFB301" stroke-width="0.7166" stroke-miterlimit="10"/>
<path d="M516.253 365.116C482.944 418.757 460.175 446.633 412.799 396.264C384.252 365.913 357.174 324.975 332.384 300.069C313.903 281.503 295.165 271.806 275.74 280.076C231.033 299.123 190.66 427.976 143.234 420.261C97.0215 412.743 72.7693 274.329 23.9563 260.44C-21.5933 247.48 -50.9809 355.592 -91.1431 350.375C-141.133 343.88 -207.735 198.494 -282.388 178.963" stroke="#FFB301" stroke-width="0.6744" stroke-miterlimit="10"/>
<path d="M519.721 367.427C486.999 419.688 463.853 445.157 417.572 396.876C389.232 367.313 362.232 327.482 337.93 303.628C319.885 285.915 301.433 276.969 282.206 285.121C238.07 303.85 197.431 426.738 150.405 420.104C104.911 413.686 78.9616 281.176 29.7365 265.932C-15.4077 251.953 -45.5609 351.782 -85.4637 346.689C-137.66 340.029 -209.529 200.784 -283.552 178.252" stroke="#FFB301" stroke-width="0.6323" stroke-miterlimit="10"/>
<path d="M523.189 369.739C491.052 420.619 467.52 443.686 422.341 397.487C394.206 368.716 367.288 329.985 343.473 307.184C325.867 290.328 307.698 282.134 288.67 290.167C245.106 308.575 204.205 425.494 157.573 419.946C112.803 414.62 85.1503 288.041 35.5143 271.424C-9.22632 256.445 -40.1417 347.976 -79.7873 343.005C-134.189 336.183 -211.324 203.074 -284.719 177.541" stroke="#FFB301" stroke-width="0.5901" stroke-miterlimit="10"/>
<path d="M526.657 372.051C495.105 421.55 471.178 442.224 427.113 398.098C399.175 370.122 372.348 332.49 349.019 310.743C331.85 294.738 313.965 287.297 295.135 295.211C252.144 313.302 210.984 424.243 164.743 419.788C120.7 415.545 91.337 294.927 41.2941 276.915C-3.04635 260.956 -34.7211 344.174 -74.1092 339.319C-130.717 332.342 -213.117 205.363 -285.883 176.828" stroke="#FFB301" stroke-width="0.548" stroke-miterlimit="10"/>
<path d="M530.124 374.364C499.159 422.48 474.821 440.772 431.882 398.71C404.138 371.532 377.407 334.995 354.563 314.301C337.835 299.148 320.23 292.461 301.601 300.256C259.18 318.028 217.763 422.983 171.913 419.631C128.597 416.464 97.5181 301.831 47.0733 282.407C3.12707 265.486 -29.3032 340.377 -68.4328 335.635C-127.247 328.505 -214.914 207.651 -287.048 176.115" stroke="#FFB301" stroke-width="0.5058" stroke-miterlimit="10"/>
<path d="M533.592 376.675C503.212 423.41 478.456 439.327 436.653 399.321C409.094 372.946 382.469 337.496 360.106 317.857C343.82 303.556 326.496 297.623 308.065 305.299C266.217 322.751 224.544 421.714 179.083 419.472C136.497 417.371 103.695 308.752 52.8524 287.897C9.29646 270.03 -23.8837 336.582 -62.7541 331.948C-123.777 324.672 -216.709 209.941 -288.213 175.402" stroke="#FFB301" stroke-width="0.4637" stroke-miterlimit="10"/>
<path d="M537.06 378.987C507.265 424.341 482.078 437.895 441.423 399.933C414.044 374.369 387.533 339.996 365.65 321.417C349.807 307.966 332.761 302.787 314.529 310.346C273.252 327.478 231.328 420.437 186.251 419.316C144.397 418.274 109.862 315.694 58.6309 293.39C15.4571 274.594 -18.4668 332.792 -57.0773 328.264C-120.31 320.847 -218.503 212.231 -289.378 174.691" stroke="#FFB301" stroke-width="0.4215" stroke-miterlimit="10"/>
<path d="M540.527 381.3C511.318 425.273 485.687 436.474 446.193 400.544C418.987 375.794 392.6 342.494 371.195 324.973C355.798 312.369 339.028 307.95 320.995 315.39C280.29 332.203 238.114 419.149 193.422 419.156C152.3 419.163 116.022 322.651 64.4114 298.88C21.6129 279.168 -13.0473 329.003 -51.3996 324.577C-116.84 317.026 -220.298 214.52 -290.542 173.978" stroke="#FFB301" stroke-width="0.3794" stroke-miterlimit="10"/>
<path d="M543.995 383.612C515.372 426.203 489.285 435.062 450.963 401.155C423.922 377.228 397.669 344.989 376.739 328.531C361.788 316.774 345.294 313.114 327.459 320.435C287.326 336.93 244.897 417.851 200.59 418.999C160.202 420.046 122.17 329.626 70.1889 304.371C27.7605 283.757 -7.63099 325.217 -45.7234 320.892C-113.372 313.212 -222.093 216.808 -291.708 173.266" stroke="#FFB301" stroke-width="0.3372" stroke-miterlimit="10"/>
<path d="M547.463 385.923C519.425 427.133 492.87 433.666 455.734 401.766C428.849 378.671 402.742 347.481 382.284 332.087C367.782 321.175 351.561 318.276 333.926 325.479C294.364 341.654 251.683 416.542 207.761 418.841C168.105 420.916 128.312 336.619 75.97 309.863C33.9007 288.359 -2.21182 321.434 -40.044 317.207C-109.905 309.401 -223.888 219.098 -292.873 172.553" stroke="#FFB301" stroke-width="0.2951" stroke-miterlimit="10"/>
<path d="M550.93 388.235C523.478 428.064 496.442 432.284 460.504 402.378C433.766 380.126 407.815 349.971 387.827 335.645C373.776 325.575 357.826 323.441 340.389 330.524C301.398 346.381 258.463 415.223 214.929 418.684C176.002 421.779 134.438 343.627 81.7469 315.355C40.0318 292.972 3.20277 317.653 -34.3689 313.522C-106.437 305.596 -225.683 221.387 -294.038 171.841" stroke="#FFB301" stroke-width="0.2529" stroke-miterlimit="10"/>
<path d="M554.398 390.548C527.531 428.995 500 430.919 465.275 402.99C438.673 381.594 412.893 352.457 393.372 339.204C379.774 329.973 364.092 328.604 346.855 335.567C308.435 351.104 265.244 413.89 222.099 418.525C183.901 422.628 140.557 350.649 87.5274 320.845C46.1555 297.593 8.6209 313.874 -28.6896 309.837C-102.971 301.797 -227.478 223.677 -295.203 171.128" stroke="#FFB301" stroke-width="0.2108" stroke-miterlimit="10"/>
<path d="M557.866 392.859C531.585 429.926 503.548 429.573 470.046 403.6C443.569 383.076 417.976 354.936 398.916 342.762C385.773 334.365 370.358 333.768 353.32 340.613C315.472 355.831 272.019 412.546 229.269 418.368C191.796 423.47 146.662 357.686 93.3064 326.337C52.2689 302.225 14.0367 310.097 -23.0125 306.151C-99.506 298.004 -229.273 225.965 -296.369 170.417" stroke="#FFB301" stroke-width="0.1686" stroke-miterlimit="10"/>
<path d="M561.334 395.173C535.638 430.857 507.083 428.246 474.815 404.212C448.453 384.578 423.059 357.412 404.46 346.32C391.774 338.754 376.624 338.933 359.784 345.657C322.508 360.556 278.791 411.191 236.439 418.211C199.686 424.302 152.752 364.736 99.085 331.828C58.3732 306.864 19.4464 306.386 -17.3367 302.465C-96.0549 294.357 -231.068 228.255 -297.534 169.704" stroke="#FFB301" stroke-width="0.1265" stroke-miterlimit="10"/>
<path d="M564.8 397.483C539.691 431.787 510.606 426.94 479.585 404.823C453.326 386.101 428.146 359.876 410.003 349.876C397.778 343.137 382.889 344.094 366.248 350.701C329.543 365.281 285.554 409.82 243.607 418.051C207.57 425.123 158.829 371.8 104.864 337.319C64.4684 311.509 24.8647 302.59 -11.6586 298.779C-92.5857 290.536 -232.863 230.544 -298.699 168.992" stroke="#FFB301" stroke-width="0.0843" stroke-miterlimit="10"/>
<path d="M568.269 399.795C543.745 432.718 514.122 425.659 484.357 405.434C458.185 387.65 433.236 362.333 415.549 353.435C403.782 347.515 389.156 349.259 372.714 355.746C336.581 370.007 292.313 408.439 250.777 417.894C215.449 425.936 164.893 378.874 110.644 342.811C70.5567 316.162 30.2849 298.797 -5.98091 295.095C-89.1179 286.714 -234.657 232.833 -299.865 168.28" stroke="#FFB301" stroke-width="0.0422" stroke-miterlimit="10"/>
</g>
<g opacity="0.6279">
<path d="M-62.5781 76.8062C-78.9771 137.57 -90.194 175.312 -18.966 172.178C52.2628 169.042 143.528 138.522 159.815 182.232C176.106 225.944 100.545 348.071 139.369 372.76C178.192 397.449 295.564 306.87 331.023 332.416C366.48 357.963 290.358 464.291 320.141 487.708C349.925 511.124 490.389 433.797 544.025 479.777" stroke="#FFB301" stroke-width="0.843" stroke-miterlimit="10"/>
<path d="M-66.2858 75.9859C-82.1459 135.494 -91.5472 172.049 -22.3774 169.428C17.5443 168.06 63.8513 157.961 98.8649 157.546C125.237 157.2 145.459 162.563 152.421 181.167C168.56 224.303 97.1216 342.806 134.95 367.95C172.629 392.826 287.214 307.078 323.769 332.085C359.701 356.666 289.434 458.337 318.983 481.654C350.251 506.434 490.018 436.423 545.23 480.096" stroke="#FFB301" stroke-width="0.8009" stroke-miterlimit="10"/>
<path d="M-69.9939 75.1647C-85.3154 133.416 -92.9078 168.545 -25.7895 166.678C13.4759 165.586 59.0156 156.2 93.0286 156.145C118.565 156.039 138.111 161.7 145.026 180.099C161.014 222.657 93.6197 337.649 130.531 363.136C166.989 388.308 278.849 307.293 316.513 331.748C352.901 355.376 288.511 452.378 317.823 475.594C350.574 501.74 489.645 439.045 546.433 480.409" stroke="#FFB301" stroke-width="0.7587" stroke-miterlimit="10"/>
<path d="M-73.7008 74.3441C-88.4854 131.339 -94.2598 165.175 -29.2013 163.928C9.41175 163.187 54.1806 154.442 87.191 154.745C111.892 154.879 130.763 160.839 137.631 179.033C153.468 221.014 90.158 332.431 126.11 358.324C161.387 383.731 270.467 307.52 309.256 331.415C346.086 354.104 287.646 446.346 316.662 469.538C350.968 496.958 489.271 441.67 547.634 480.726" stroke="#FFB301" stroke-width="0.7166" stroke-miterlimit="10"/>
<path d="M-77.4085 73.5238C-91.6525 129.262 -95.6111 161.817 -32.6115 161.179C5.35038 160.794 49.344 152.765 81.3567 153.346C105.22 153.78 123.417 159.979 130.237 177.966C145.923 219.37 86.6977 327.205 121.692 353.512C155.79 379.145 262.075 307.757 302.002 331.081C339.259 352.845 286.736 440.373 315.505 463.481C351.314 492.243 488.901 444.294 548.84 481.043" stroke="#FFB301" stroke-width="0.6744" stroke-miterlimit="10"/>
<path d="M-81.1157 72.7023C-94.8229 127.185 -96.9612 158.468 -36.0248 158.428C1.28819 158.404 44.5055 151.022 75.5186 151.946C98.5462 152.632 116.068 159.117 122.841 176.899C138.377 217.726 83.2395 321.973 117.27 348.699C150.192 374.554 253.667 308.007 294.745 330.746C332.416 351.601 285.821 434.406 314.344 457.422C351.654 487.53 488.528 446.918 550.042 481.359" stroke="#FFB301" stroke-width="0.6323" stroke-miterlimit="10"/>
<path d="M-84.8235 71.8821C-97.9921 125.108 -98.3079 155.13 -39.4354 155.679C-2.7721 156.02 39.6703 149.278 69.6831 150.546C91.8714 151.484 108.721 158.257 115.446 175.833C130.831 216.083 79.7831 316.736 112.851 343.887C144.599 369.956 245.249 308.271 287.489 330.413C325.563 350.372 284.903 428.443 313.184 451.367C351.992 482.822 488.155 449.543 551.245 481.677" stroke="#FFB301" stroke-width="0.5901" stroke-miterlimit="10"/>
<path d="M-88.5316 71.061C-101.161 123.031 -99.6546 151.803 -42.8476 152.928C-6.832 153.641 34.8314 147.532 63.8451 149.146C85.1974 150.334 101.373 157.395 108.051 174.765C123.285 214.439 76.3289 311.49 108.432 339.075C139.009 365.349 236.82 308.548 280.233 330.078C318.699 349.156 283.982 422.481 312.025 445.309C352.326 478.116 487.782 452.165 552.448 481.992" stroke="#FFB301" stroke-width="0.548" stroke-miterlimit="10"/>
<path d="M-92.2393 70.2407C-104.33 120.954 -100.999 148.492 -46.259 150.179C-10.8895 151.269 29.9925 145.786 58.0087 147.747C78.5227 149.182 94.0254 156.535 100.656 173.699C115.738 212.796 72.8793 306.24 104.011 334.263C133.422 360.738 228.382 308.841 272.977 329.745C311.827 347.956 283.06 416.524 310.865 439.253C352.659 473.415 487.411 454.79 553.652 482.309" stroke="#FFB301" stroke-width="0.5058" stroke-miterlimit="10"/>
<path d="M-95.9466 69.4192C-107.499 118.876 -102.342 145.191 -49.6703 147.428C-14.9463 148.903 25.1549 144.037 52.174 146.347C71.8496 148.029 86.6793 155.673 93.2623 172.631C108.194 211.15 69.4352 300.981 99.5921 329.449C127.841 356.117 219.936 309.148 265.722 329.41C304.947 346.768 282.135 410.567 309.706 433.194C352.989 468.715 487.039 457.414 554.856 482.625" stroke="#FFB301" stroke-width="0.4637" stroke-miterlimit="10"/>
<path d="M-99.6543 68.5989C-110.668 116.799 -103.686 141.906 -53.0825 144.679C-19.0045 146.546 20.3165 142.286 46.3359 144.948C65.1732 146.876 79.3319 154.813 85.8665 171.566C100.648 209.509 65.9946 295.717 95.1718 324.639C122.263 351.494 211.482 309.474 258.465 329.077C298.061 345.597 281.209 404.615 308.545 427.138C353.316 464.023 486.666 460.039 556.059 482.942" stroke="#FFB301" stroke-width="0.4215" stroke-miterlimit="10"/>
<path d="M-103.362 67.7786C-113.838 114.722 -105.029 138.637 -56.4934 141.929C-23.0594 144.197 15.4774 140.531 40.4996 143.547C58.4991 145.716 71.9845 153.951 78.4716 170.498C93.1016 207.863 62.5599 290.443 90.7529 319.825C116.693 346.86 203.022 309.814 251.21 328.741C291.17 344.437 280.28 398.662 307.387 421.08C353.639 459.331 486.293 462.663 557.262 483.257" stroke="#FFB301" stroke-width="0.3794" stroke-miterlimit="10"/>
<path d="M-107.07 66.9584C-117.007 112.645 -106.371 135.382 -59.9052 139.179C-27.1157 141.857 10.6391 138.774 34.6632 142.148C51.8244 144.558 64.6367 153.09 71.0766 169.433C85.5555 206.221 59.1335 285.166 86.3331 315.014C111.127 342.222 194.558 310.174 243.955 328.408C284.275 343.291 279.351 392.714 306.228 415.024C353.958 454.645 485.922 465.287 558.465 483.574" stroke="#FFB301" stroke-width="0.3372" stroke-miterlimit="10"/>
<path d="M-110.777 66.1368C-120.175 110.568 -107.715 132.145 -63.3165 136.428C-31.1735 139.529 5.80046 137.012 28.8269 140.746C45.1494 143.395 57.2893 152.228 63.6813 168.364C78.0099 204.575 55.7127 279.879 81.9133 310.2C105.57 337.577 186.086 310.548 236.698 328.073C277.376 342.159 278.419 386.764 305.067 408.965C354.276 449.962 485.549 467.911 559.669 483.891" stroke="#FFB301" stroke-width="0.2951" stroke-miterlimit="10"/>
<path d="M-114.484 65.3162C-123.345 108.49 -109.06 128.925 -66.7279 133.679C-35.2319 137.215 0.963095 135.248 22.9909 139.348C38.4749 142.23 49.9419 151.368 56.2876 167.299C70.4642 202.933 52.3015 274.59 77.4939 305.39C100.019 332.93 177.615 310.943 229.443 327.741C270.475 341.039 277.488 380.82 303.909 402.91C354.589 445.282 485.177 470.535 560.872 484.207" stroke="#FFB301" stroke-width="0.2529" stroke-miterlimit="10"/>
<path d="M-118.192 64.4963C-126.514 106.413 -110.409 125.725 -70.1405 130.929C-39.2926 134.916 -3.87505 133.478 17.1533 137.949C31.8008 141.063 42.5941 150.507 48.8927 166.231C62.9199 201.288 48.8999 269.292 73.0741 300.576C94.4771 328.274 169.138 311.351 222.187 327.405C263.574 339.929 276.554 374.874 302.748 396.852C354.899 440.607 484.804 473.16 562.075 484.523" stroke="#FFB301" stroke-width="0.2108" stroke-miterlimit="10"/>
<path d="M-121.9 63.6748C-129.684 104.337 -111.762 122.543 -73.5519 128.178C-43.356 132.632 -8.71141 131.701 11.3165 136.549C25.1284 139.89 35.2463 149.647 41.4973 165.165C55.3734 199.645 45.5083 263.99 68.6539 295.764C88.9428 323.615 160.661 311.778 214.931 327.071C256.672 338.833 275.62 368.931 301.589 390.795C355.206 435.936 484.433 475.784 563.278 484.841" stroke="#FFB301" stroke-width="0.1686" stroke-miterlimit="10"/>
<path d="M-125.608 62.855C-132.853 102.26 -113.12 119.382 -76.9633 125.429C-47.4247 130.37 -13.5461 129.922 5.48015 135.149C18.4569 138.715 27.8976 148.786 34.1028 164.098C47.8278 198.001 42.1268 258.684 64.2337 290.952C83.4177 318.954 152.184 312.223 207.676 326.737C249.771 337.748 274.645 363.034 300.431 384.738C355.426 431.366 484.06 478.408 564.482 485.156" stroke="#FFB301" stroke-width="0.1265" stroke-miterlimit="10"/>
<path d="M-129.314 62.0339C-136.021 100.182 -114.484 116.242 -80.3742 122.679C-51.4999 128.127 -18.3748 128.133 -0.355366 133.75C11.7881 137.534 20.5528 147.925 26.7095 163.031C40.2834 196.358 38.7607 253.374 59.8156 286.14C77.9043 314.289 143.707 312.685 200.42 326.403C242.872 336.672 273.722 357.077 299.271 378.68C355.749 426.675 483.688 481.032 565.685 485.474" stroke="#FFB301" stroke-width="0.0843" stroke-miterlimit="10"/>
<path d="M-133.022 61.2128C-139.19 98.1049 -115.861 113.123 -83.7864 119.928C-55.5842 125.911 -23.2017 126.337 -6.19341 132.349C5.12208 136.349 13.2037 147.064 19.3129 161.964C32.7365 194.713 35.4041 248.06 55.3953 281.328C72.3982 309.623 135.231 313.162 193.163 326.069C235.972 335.606 272.796 351.121 298.11 372.624C356.073 421.984 483.315 483.656 566.889 485.79" stroke="#FFB301" stroke-width="0.0422" stroke-miterlimit="10"/>
</g>
</g>
</svg>
