<?xml version="1.0" standalone="no"?><svg xmlns="http://www.w3.org/2000/svg" viewBox="0 0 1440 320" width="1500"><path fill="#FFB301" fill-opacity="1" d="M0,160L24,176C48,192,96,224,144,202.7C192,181,240,107,288,112C336,117,384,203,432,208C480,213,528,139,576,122.7C624,107,672,149,720,165.3C768,181,816,171,864,154.7C912,139,960,117,1008,122.7C1056,128,1104,160,1152,192C1200,224,1248,256,1296,272C1344,288,1392,288,1416,288L1440,288L1440,0L1416,0C1392,0,1344,0,1296,0C1248,0,1200,0,1152,0C1104,0,1056,0,1008,0C960,0,912,0,864,0C816,0,768,0,720,0C672,0,624,0,576,0C528,0,480,0,432,0C384,0,336,0,288,0C240,0,192,0,144,0C96,0,48,0,24,0L0,0Z"></path></svg>